<svg width="25" height="25" fill="none" xmlns="http://www.w3.org/2000/svg"><path d="M22.5 6.11a8.292 8.292 0 0 1-2.356.638 4.07 4.07 0 0 0 1.804-2.234 8.35 8.35 0 0 1-2.607.98 4.12 4.12 0 0 0-2.995-1.275c-2.266 0-4.103 1.81-4.103 4.04 0 .316.036.625.106.92a11.708 11.708 0 0 1-8.456-4.221 3.964 3.964 0 0 0-.554 2.03 4.02 4.02 0 0 0 1.824 3.363 4.15 4.15 0 0 1-1.858-.507v.05c0 1.958 1.415 3.59 3.29 3.963-.352.093-.715.14-1.08.14-.265 0-.522-.024-.773-.074a4.098 4.098 0 0 0 3.832 2.807 8.313 8.313 0 0 1-5.095 1.727c-.332 0-.658-.02-.979-.056a11.728 11.728 0 0 0 6.289 1.818c7.547 0 11.673-6.157 11.673-11.496l-.014-.523A8.126 8.126 0 0 0 22.5 6.11Z" fill="#E2E8F0"/></svg>