<svg width="25" height="25" fill="none" xmlns="http://www.w3.org/2000/svg"><path d="M22.459 13.923v7.379h-4.278v-6.885c0-1.73-.619-2.91-2.167-2.91-1.182 0-1.886.796-2.195 1.565-.113.275-.142.658-.142 1.043v7.187h-4.28s.058-11.66 0-12.87h4.28v1.825l-.028.042h.028v-.042c.568-.875 1.583-2.126 3.856-2.126 2.815 0 4.926 1.84 4.926 5.792ZM4.921 2.23c-1.463 0-2.421.96-2.421 2.223 0 1.235.93 2.224 2.365 2.224h.028c1.493 0 2.42-.99 2.42-2.224C7.287 3.19 6.387 2.23 4.922 2.23h-.001ZM2.754 21.302h4.278V8.432H2.754v12.87Z" fill="#E2E8F0"/></svg>