<svg width="0" height="0" class="hidden">
    <smybol viewBox="0 0 18 16" xmlns="http://www.w3.org/2000/svg" id="cart_icon"><path d="M7 16a2 2 0 1 1 0-4 2 2 0 0 1 0 4Zm7 0a2 2 0 1 1 0-4 2 2 0 0 1 0 4ZM.962 1.923A.962.962 0 0 1 .962 0h1.151c.902 0 1.682.626 1.878 1.506l1.253 5.642c.196.88.976 1.506 1.878 1.506h7.512l1.442-5.77H6.731a.962.962 0 0 1 0-1.922h9.345a1.923 1.923 0 0 1 1.866 2.39L16.5 9.12a1.923 1.923 0 0 1-1.866 1.457H7.122a3.846 3.846 0 0 1-3.755-3.012L2.113 1.923H.962Z"/></symbol>
    <symbol viewBox="0 0 14 10" xmlns="http://www.w3.org/2000/svg" id="green_checkmark"><path d="M5.486 9.73a.997.997 0 0 1-.707-.292L.537 5.195A1 1 0 1 1 1.95 3.78l3.535 3.535L11.85.952a1 1 0 0 1 1.415 1.414L6.193 9.438a.997.997 0 0 1-.707.292Z" /></symbol>
    <symbol viewBox="0 0 15 14" xmlns="http://www.w3.org/2000/svg" id="brown_arrow"><path d="M1 7h12.5H1Zm12.5 0-6-6 6 6Zm0 0-6 6 6-6Z" /><path d="m13.5 7-6 6M1 7h12.5H1Zm12.5 0-6-6 6 6Z" stroke="#78350F" stroke-width="1.5" stroke-linecap="round" stroke-linejoin="round"/></symbol>
    <symbol viewBox="0 0 14 14" xmlns="http://www.w3.org/2000/svg" id="black_bold_arrow"><path d="m10.586 5.657-3.95-3.95A1 1 0 0 1 8.05.293l5.657 5.657a.997.997 0 0 1 0 1.414L8.05 13.02a1 1 0 1 1-1.414-1.414l3.95-3.95H1a1 1 0 0 1 0-2h9.586Z" /></symbol>
    <symbol viewBox="0 0 20 14" xmlns="http://www.w3.org/2000/svg" id="youtube"><path d="M15.812.017H4.145C1.855.017 0 1.852 0 4.116v5.768c0 2.264 1.856 4.1 4.145 4.1h11.667c2.29 0 4.145-1.836 4.145-4.1V4.116c0-2.264-1.856-4.1-4.145-4.1v.001ZM13.009 7.28 7.552 9.855a.219.219 0 0 1-.314-.196V4.35a.22.22 0 0 1 .318-.193l5.458 2.735a.215.215 0 0 1-.005.389V7.28Z"/></symbol>
    <symbol viewBox="0 0 10 20" xmlns="http://www.w3.org/2000/svg" id="facebook"><path d="M2.046 3.865v2.748H.032v3.36h2.014v9.986H6.18V9.974h2.775s.26-1.611.386-3.373H6.197V4.303c0-.343.45-.805.896-.805h2.254V0H6.283c-4.34 0-4.237 3.363-4.237 3.865Z"/></symbol>
    <symbol viewBox="0 0 20 17" xmlns="http://www.w3.org/2000/svg" id="twitter"><path d="M20 1.907a8.291 8.291 0 0 1-2.356.637A4.07 4.07 0 0 0 19.448.31a8.35 8.35 0 0 1-2.607.98A4.12 4.12 0 0 0 13.846.015c-2.266 0-4.103 1.81-4.103 4.04 0 .316.036.625.106.92A11.708 11.708 0 0 1 1.393.754a3.964 3.964 0 0 0-.554 2.03 4.02 4.02 0 0 0 1.824 3.363A4.15 4.15 0 0 1 .805 5.64v.05c0 1.958 1.415 3.591 3.29 3.963-.352.094-.715.14-1.08.141-.265 0-.522-.025-.773-.075a4.099 4.099 0 0 0 3.832 2.807 8.311 8.311 0 0 1-5.095 1.727c-.332 0-.658-.02-.979-.056a11.727 11.727 0 0 0 6.289 1.818c7.547 0 11.673-6.157 11.673-11.496l-.014-.523A8.126 8.126 0 0 0 20 1.907Z"/></symbol>
    <symbol viewBox="0 0 20 20" xmlns="http://www.w3.org/2000/svg" id="instagram"><path d="M14.017 0h-8.07A5.954 5.954 0 0 0 0 5.948v8.07a5.954 5.954 0 0 0 5.948 5.947h8.07a5.954 5.954 0 0 0 5.947-5.948v-8.07A5.954 5.954 0 0 0 14.017 0Zm3.94 14.017a3.94 3.94 0 0 1-3.94 3.94h-8.07a3.94 3.94 0 0 1-3.939-3.94v-8.07a3.94 3.94 0 0 1 3.94-3.939h8.07a3.94 3.94 0 0 1 3.939 3.94v8.07-.001Z" /><path d="M9.982 4.819A5.17 5.17 0 0 0 4.82 9.982a5.17 5.17 0 0 0 5.163 5.164 5.17 5.17 0 0 0 5.164-5.164A5.17 5.17 0 0 0 9.982 4.82v-.001Zm0 8.319a3.155 3.155 0 1 1 0-6.31 3.155 3.155 0 0 1 0 6.31ZM15.156 6.095a1.237 1.237 0 1 0 0-2.474 1.237 1.237 0 0 0 0 2.474Z"/></symbol>
    <symbol viewBox="0 0 20 20" xmlns="http://www.w3.org/2000/svg" id="linkedin"><path d="M19.959 11.719v7.379h-4.278v-6.885c0-1.73-.619-2.91-2.167-2.91-1.182 0-1.886.796-2.195 1.565-.113.275-.142.658-.142 1.043v7.187h-4.28s.058-11.66 0-12.869h4.28v1.824l-.028.042h.028v-.042c.568-.875 1.583-2.126 3.856-2.126 2.815 0 4.926 1.84 4.926 5.792ZM2.421.026C.958.026 0 .986 0 2.249c0 1.235.93 2.224 2.365 2.224h.028c1.493 0 2.42-.989 2.42-2.224C4.787.986 3.887.026 2.422.026h-.001ZM.254 19.098h4.278V6.229H.254v12.869Z"/></symbol>
    <symbol viewBox="0 0 20 20" xmlns="http://www.w3.org/2000/svg" id="lang_globe"><path d="M2.252 8a8.047 8.047 0 0 0 0 4H5.1a19.83 19.83 0 0 1 0-4H2.252Zm.818-2h2.346c.266-1.217.65-2.307 1.121-3.214A8.035 8.035 0 0 0 3.07 6Zm14.678 2H14.9c.135 1.33.135 2.67 0 4h2.848a8.046 8.046 0 0 0 0-4Zm-.818-2a8.035 8.035 0 0 0-3.467-3.214c.472.907.855 1.997 1.121 3.214h2.346ZM7.112 8a17.763 17.763 0 0 0 0 4h5.776c.15-1.33.15-2.67 0-4H7.112Zm.358-2h5.06a10.759 10.759 0 0 0-.783-2.177C11.119 2.568 10.447 2 10 2c-.448 0-1.119.568-1.747 1.823-.315.632-.58 1.367-.783 2.177Zm-4.4 8a8.035 8.035 0 0 0 3.467 3.214c-.472-.907-.855-1.997-1.121-3.214H3.07Zm13.86 0h-2.346c-.266 1.217-.65 2.307-1.121 3.214A8.035 8.035 0 0 0 16.93 14Zm-9.46 0c.203.81.468 1.545.783 2.177C8.881 17.432 9.553 18 10 18c.448 0 1.119-.568 1.747-1.823.315-.632.58-1.367.783-2.177H7.47ZM10 20C4.477 20 0 15.523 0 10S4.477 0 10 0s10 4.477 10 10-4.477 10-10 10Z"/></symbol>
    <symbol viewBox="0 0 64 73" xmlns="http://www.w3.org/2000/svg" id="play_button"><path d="M55.28 38.592a3.903 3.903 0 0 0-1.296-5.452L14.296 9.012a4.124 4.124 0 0 0-2.14-.596c-2.24 0-4.052 1.772-4.052 3.96V60.62c0 .74.212 1.464.612 2.092 1.184 1.856 3.68 2.424 5.58 1.268l39.688-24.124c.524-.32.972-.756 1.3-1.268l-.004.004Zm2.984 7.988L18.58 70.704c-5.7 3.468-13.2 1.76-16.744-3.804A11.672 11.672 0 0 1 0 60.62V12.38C0 5.816 5.44.5 12.16.5c2.268 0 4.492.62 6.42 1.792L58.264 26.42c5.7 3.464 7.448 10.784 3.9 16.352a12.028 12.028 0 0 1-3.9 3.808Z" fill="#fff"/></symbol>
</svg>