<svg width="121" height="41" fill="none" xmlns="http://www.w3.org/2000/svg"><path d="M110.803.203h-100.6c-.367 0-.73 0-1.095.002-.306.002-.61.008-.919.013-.672.008-1.341.067-2.004.177a6.665 6.665 0 0 0-1.9.627A6.438 6.438 0 0 0 .861 5.725a12.993 12.993 0 0 0-.179 2.002c-.01.307-.01.614-.015.92v23.115c.005.31.006.611.015.922.008.67.068 1.34.18 2.002.11.663.32 1.305.624 1.904.303.598.701 1.144 1.179 1.614.473.477 1.019.876 1.618 1.18.599.303 1.24.516 1.901.63.663.109 1.333.168 2.004.177.31.007.613.01.919.01.366.002.728.002 1.095.002h100.6c.359 0 .724 0 1.084-.002.304 0 .617-.003.922-.01.67-.009 1.338-.068 2-.177a6.808 6.808 0 0 0 1.908-.63 6.296 6.296 0 0 0 1.617-1.18 6.405 6.405 0 0 0 1.182-1.614c.302-.6.51-1.242.619-1.904.111-.662.173-1.331.185-2.002.004-.31.004-.611.004-.922.008-.363.008-.724.008-1.094V9.74c0-.367 0-.73-.008-1.092 0-.307 0-.614-.004-.921a13.57 13.57 0 0 0-.185-2.002 6.648 6.648 0 0 0-.619-1.903 6.469 6.469 0 0 0-2.799-2.8 6.78 6.78 0 0 0-1.908-.627c-.661-.11-1.33-.17-2-.177-.305-.005-.618-.01-.922-.013-.36-.002-.725-.002-1.084-.002Z" fill="#A6A6A6"/><path d="M9.113 39.328c-.305 0-.602-.003-.905-.01a12.696 12.696 0 0 1-1.869-.163 5.884 5.884 0 0 1-1.656-.548 5.406 5.406 0 0 1-1.397-1.017 5.321 5.321 0 0 1-1.02-1.396 5.722 5.722 0 0 1-.544-1.658 12.415 12.415 0 0 1-.166-1.875c-.007-.21-.015-.913-.015-.913v-23.1s.009-.692.015-.895c.007-.627.063-1.253.165-1.872a5.756 5.756 0 0 1 .544-1.662c.26-.518.603-.99 1.015-1.398a5.566 5.566 0 0 1 3.055-1.566c.62-.102 1.248-.157 1.876-.164l.902-.013h102.769l.913.013a12.37 12.37 0 0 1 1.858.163 5.933 5.933 0 0 1 1.671.548 5.594 5.594 0 0 1 2.415 2.42 5.74 5.74 0 0 1 .535 1.648c.104.624.162 1.255.174 1.888.003.283.003.587.003.89.008.375.008.732.008 1.092v20.928c0 .364 0 .718-.008 1.076 0 .325 0 .623-.004.93-.011.62-.069 1.24-.171 1.853a5.716 5.716 0 0 1-.54 1.67 5.47 5.47 0 0 1-1.015 1.385 5.414 5.414 0 0 1-1.4 1.023 5.855 5.855 0 0 1-1.668.55c-.618.1-1.243.155-1.869.163-.293.007-.599.01-.897.01l-1.084.002-101.69-.002Z" fill="#000"/><g fill="#fff"><path d="M25.437 20.505a4.95 4.95 0 0 1 2.356-4.152 5.066 5.066 0 0 0-3.99-2.158c-1.68-.176-3.308 1.005-4.164 1.005-.872 0-2.19-.988-3.608-.958a5.316 5.316 0 0 0-4.473 2.727c-1.934 3.349-.492 8.27 1.361 10.976.927 1.326 2.01 2.806 3.428 2.754 1.387-.058 1.905-.885 3.58-.885 1.658 0 2.144.885 3.59.851 1.489-.024 2.426-1.33 3.32-2.669a10.964 10.964 0 0 0 1.52-3.092 4.782 4.782 0 0 1-2.92-4.4ZM22.705 12.415a4.872 4.872 0 0 0 1.115-3.49 4.957 4.957 0 0 0-3.208 1.659 4.635 4.635 0 0 0-1.143 3.361 4.099 4.099 0 0 0 3.236-1.53Z"/></g><g fill="#fff"><path d="M42.97 27.343h-4.733L37.1 30.7h-2.005l4.484-12.418h2.083L46.145 30.7h-2.04l-1.135-3.357Zm-4.243-1.549h3.752l-1.85-5.447h-.051l-1.851 5.447ZM55.828 26.173c0 2.813-1.506 4.621-3.779 4.621a3.07 3.07 0 0 1-2.848-1.584h-.043v4.484h-1.859V21.646h1.8v1.505h.033a3.21 3.21 0 0 1 2.883-1.6c2.298 0 3.813 1.816 3.813 4.622Zm-1.91 0c0-1.833-.948-3.038-2.393-3.038-1.42 0-2.375 1.23-2.375 3.038 0 1.824.955 3.046 2.375 3.046 1.445 0 2.392-1.196 2.392-3.046ZM65.793 26.173c0 2.813-1.506 4.621-3.779 4.621a3.07 3.07 0 0 1-2.848-1.584h-.043v4.484h-1.859V21.646h1.799v1.505h.034a3.212 3.212 0 0 1 2.883-1.6c2.298 0 3.813 1.816 3.813 4.622Zm-1.91 0c0-1.833-.948-3.038-2.393-3.038-1.42 0-2.375 1.23-2.375 3.038 0 1.824.955 3.046 2.375 3.046 1.445 0 2.392-1.197 2.392-3.046ZM72.378 27.24c.138 1.231 1.334 2.04 2.97 2.04 1.566 0 2.693-.809 2.693-1.92 0-.963-.68-1.54-2.29-1.936l-1.609-.387c-2.28-.551-3.339-1.618-3.339-3.348 0-2.143 1.867-3.614 4.519-3.614 2.624 0 4.423 1.471 4.483 3.614H77.93c-.112-1.24-1.136-1.988-2.634-1.988-1.497 0-2.521.757-2.521 1.859 0 .878.654 1.395 2.255 1.79l1.368.336c2.548.602 3.606 1.626 3.606 3.442 0 2.323-1.85 3.779-4.793 3.779-2.754 0-4.614-1.421-4.734-3.667h1.902ZM84.014 19.503v2.143h1.722v1.472h-1.722v4.99c0 .776.345 1.137 1.102 1.137a5.81 5.81 0 0 0 .611-.043v1.463c-.34.064-.686.093-1.032.086-1.833 0-2.548-.688-2.548-2.444v-5.19h-1.316v-1.471h1.316v-2.143h1.867ZM86.733 26.173c0-2.848 1.678-4.638 4.294-4.638 2.625 0 4.295 1.79 4.295 4.638 0 2.857-1.661 4.639-4.295 4.639-2.633 0-4.294-1.782-4.294-4.639Zm6.695 0c0-1.954-.895-3.107-2.401-3.107-1.506 0-2.4 1.162-2.4 3.107 0 1.962.894 3.107 2.4 3.107 1.506 0 2.401-1.145 2.401-3.107ZM96.854 21.645h1.772v1.541h.043a2.16 2.16 0 0 1 2.178-1.635c.214-.001.428.022.637.07v1.737a2.594 2.594 0 0 0-.835-.112 1.872 1.872 0 0 0-1.937 2.083v5.37h-1.858v-9.054ZM110.052 28.04c-.25 1.644-1.85 2.772-3.898 2.772-2.634 0-4.269-1.765-4.269-4.596 0-2.84 1.644-4.681 4.191-4.681 2.505 0 4.08 1.72 4.08 4.465v.637h-6.395v.112a2.353 2.353 0 0 0 .639 1.832 2.364 2.364 0 0 0 1.797.733 2.045 2.045 0 0 0 2.091-1.274h1.764Zm-6.282-2.702h4.526a2.166 2.166 0 0 0-.608-1.634 2.168 2.168 0 0 0-1.612-.664 2.291 2.291 0 0 0-2.306 2.298Z"/></g><g fill="#fff"><path d="M38.494 8.934a2.64 2.64 0 0 1 2.808 2.965c0 1.906-1.03 3.002-2.808 3.002H36.34V8.934h2.155Zm-1.228 5.123h1.125a1.876 1.876 0 0 0 1.967-2.146 1.882 1.882 0 0 0-1.967-2.134h-1.125v4.28ZM42.349 12.647a2.134 2.134 0 1 1 4.247 0 2.134 2.134 0 1 1-4.247 0Zm3.333 0c0-.976-.439-1.546-1.208-1.546-.773 0-1.207.57-1.207 1.546 0 .984.434 1.55 1.207 1.55.77 0 1.208-.57 1.208-1.55ZM52.241 14.9h-.922l-.93-3.316h-.07l-.927 3.317h-.914l-1.24-4.503h.9l.807 3.436h.067l.925-3.436h.853l.926 3.436h.07l.803-3.436h.889L52.24 14.9ZM54.522 10.397h.855v.716h.066a1.348 1.348 0 0 1 1.344-.803 1.464 1.464 0 0 1 1.559 1.675V14.9h-.889v-2.692c0-.723-.314-1.083-.972-1.083a1.034 1.034 0 0 0-1.075 1.141V14.9h-.888v-4.503ZM59.762 8.64h.888v6.26h-.888V8.64ZM61.886 12.647a2.133 2.133 0 1 1 4.247 0 2.134 2.134 0 1 1-4.247 0Zm3.333 0c0-.976-.439-1.546-1.208-1.546-.773 0-1.207.57-1.207 1.546 0 .984.434 1.55 1.207 1.55.77 0 1.208-.57 1.208-1.55ZM67.069 13.627c0-.81.603-1.277 1.675-1.344l1.22-.07v-.389c0-.476-.315-.744-.922-.744-.497 0-.84.182-.939.5h-.86c.09-.773.818-1.27 1.84-1.27 1.128 0 1.765.563 1.765 1.514v3.077h-.855v-.633h-.07a1.516 1.516 0 0 1-1.353.707 1.36 1.36 0 0 1-1.501-1.348Zm2.894-.385v-.376l-1.1.07c-.62.042-.9.253-.9.65 0 .405.351.64.834.64a1.062 1.062 0 0 0 1.166-.984ZM72.016 12.647c0-1.422.732-2.324 1.87-2.324a1.484 1.484 0 0 1 1.38.79h.066V8.64h.89v6.26h-.852v-.71h-.07a1.563 1.563 0 0 1-1.415.785c-1.145 0-1.869-.901-1.869-2.328Zm.918 0c0 .955.45 1.53 1.203 1.53.75 0 1.212-.583 1.212-1.526 0-.938-.468-1.53-1.212-1.53-.748 0-1.203.58-1.203 1.526ZM79.898 12.647a2.134 2.134 0 1 1 4.247 0 2.134 2.134 0 1 1-4.247 0Zm3.333 0c0-.976-.439-1.546-1.208-1.546-.772 0-1.207.57-1.207 1.546 0 .984.434 1.55 1.207 1.55.77 0 1.208-.57 1.208-1.55ZM85.337 10.397h.856v.716h.066a1.348 1.348 0 0 1 1.344-.803 1.464 1.464 0 0 1 1.559 1.675V14.9h-.889v-2.692c0-.723-.314-1.083-.972-1.083a1.034 1.034 0 0 0-1.075 1.141V14.9h-.889v-4.503ZM94.183 9.277v1.141h.976v.749h-.976v2.315c0 .472.194.679.637.679.113 0 .226-.008.339-.021v.74c-.16.029-.322.044-.484.046-.988 0-1.382-.348-1.382-1.216v-2.543h-.714v-.749h.715V9.277h.89ZM96.373 8.64h.88v2.481h.07a1.386 1.386 0 0 1 1.374-.806 1.485 1.485 0 0 1 1.551 1.678v2.908h-.89v-2.688c0-.72-.335-1.084-.963-1.084a1.05 1.05 0 0 0-1.134 1.142v2.63h-.888V8.64ZM105.429 13.685a1.828 1.828 0 0 1-1.951 1.303 2.047 2.047 0 0 1-2.08-2.325 2.077 2.077 0 0 1 2.076-2.352c1.253 0 2.009.856 2.009 2.27v.31h-3.18v.05a1.19 1.19 0 0 0 1.199 1.29 1.08 1.08 0 0 0 1.072-.546h.855Zm-3.126-1.451h2.275a1.09 1.09 0 0 0-1.109-1.167 1.146 1.146 0 0 0-.829.338 1.163 1.163 0 0 0-.337.829Z"/></g></svg>