<svg width="14" height="10" viewBox="0 0 14 10" fill="none" xmlns="http://www.w3.org/2000/svg">
<path d="M5.48599 9.93351C5.35472 9.93377 5.2247 9.90812 5.10337 9.85801C4.98204 9.8079 4.87181 9.73432 4.77899 9.64151L0.536988 5.39851C0.441415 5.30633 0.365157 5.19604 0.312663 5.07407C0.26017 4.9521 0.232492 4.8209 0.231245 4.68813C0.229999 4.55535 0.255208 4.42365 0.305401 4.30072C0.355595 4.17779 0.429769 4.06609 0.523594 3.97213C0.61742 3.87817 0.729018 3.80384 0.851878 3.75347C0.974737 3.70311 1.1064 3.67771 1.23918 3.67877C1.37196 3.67983 1.50319 3.70732 1.62523 3.75964C1.74727 3.81196 1.85767 3.88806 1.94999 3.98351L5.48499 7.51851L11.85 1.15551C12.0375 0.967867 12.2919 0.862399 12.5571 0.862305C12.8224 0.862211 13.0768 0.967499 13.2645 1.15501C13.4521 1.34252 13.5576 1.59688 13.5577 1.86215C13.5578 2.12742 13.4525 2.38187 13.265 2.56951L6.19299 9.64151C6.10017 9.73432 5.98993 9.8079 5.86861 9.85801C5.74728 9.90812 5.61725 9.93377 5.48599 9.93351Z" fill="#15803D"/>
</svg>
