<svg width="25" height="25" fill="none" xmlns="http://www.w3.org/2000/svg"><g fill="#E2E8F0"><path d="M16.517 2.204h-8.07A5.954 5.954 0 0 0 2.5 8.152v8.07a5.954 5.954 0 0 0 5.948 5.947h8.07a5.954 5.954 0 0 0 5.947-5.948V8.15a5.954 5.954 0 0 0-5.948-5.947Zm3.94 14.017a3.94 3.94 0 0 1-3.94 3.94h-8.07a3.94 3.94 0 0 1-3.939-3.94V8.15a3.94 3.94 0 0 1 3.94-3.94h8.07a3.94 3.94 0 0 1 3.939 3.94v8.07Z"/><path d="M12.482 7.023a5.17 5.17 0 0 0-5.162 5.163 5.17 5.17 0 0 0 5.163 5.164 5.17 5.17 0 0 0 5.164-5.164 5.17 5.17 0 0 0-5.165-5.162v-.001Zm0 8.319a3.155 3.155 0 1 1 0-6.31 3.155 3.155 0 0 1 0 6.31ZM17.656 8.299a1.237 1.237 0 1 0 0-2.474 1.237 1.237 0 0 0 0 2.474Z"/></g></svg>