<svg width="135" height="41" fill="none" xmlns="http://www.w3.org/2000/svg"><path d="M130 .204H5a5 5 0 0 0-5 5v30a5 5 0 0 0 5 5h125a5 5 0 0 0 5-5v-30a5 5 0 0 0-5-5Z" fill="#000"/><path d="M130 1.004a4.2 4.2 0 0 1 4.2 4.2v30a4.199 4.199 0 0 1-4.2 4.2H5a4.2 4.2 0 0 1-4.2-4.2v-30a4.2 4.2 0 0 1 4.2-4.2h125Zm0-.8H5a5 5 0 0 0-5 5v30a5 5 0 0 0 5 5h125a5.002 5.002 0 0 0 5-5v-30a5.002 5.002 0 0 0-5-5Z" fill="#A6A6A6"/><path d="M44.376 10.69h2.09v2.9a5.78 5.78 0 0 1-.97.238c-.33.052-.699.078-1.108.078-.622 0-1.147-.125-1.575-.373a2.404 2.404 0 0 1-.97-1.06c-.221-.46-.332-1.008-.332-1.64 0-.62.122-1.16.365-1.62a2.59 2.59 0 0 1 1.06-1.073c.463-.256 1.02-.384 1.669-.384a4.571 4.571 0 0 1 1.78.351l-.266.606a4.898 4.898 0 0 0-.733-.245 3.282 3.282 0 0 0-.822-.103c-.488 0-.907.101-1.256.303a2.015 2.015 0 0 0-.798.855c-.183.369-.274.805-.274 1.31 0 .499.08.934.241 1.305.161.368.412.655.753.86.341.204.78.306 1.318.306.27 0 .502-.015.695-.045.194-.033.37-.07.528-.114V11.31h-1.395v-.622Zm6.87 3.134h-3.33V7.842h3.33v.613H48.61v1.936h2.483v.605h-2.483v2.214h2.635v.614Zm3.163 0h-.7V8.455h-1.882v-.613h4.456v.613h-1.874v5.369Zm4.955 0V7.842h.696v5.982h-.696Zm4.178 0h-.7V8.455H60.96v-.613h4.456v.613h-1.874v5.369Zm10.143-3c0 .462-.058.882-.176 1.26a2.744 2.744 0 0 1-.523.975 2.3 2.3 0 0 1-.856.626 2.97 2.97 0 0 1-1.186.22c-.464 0-.87-.073-1.216-.22a2.272 2.272 0 0 1-.859-.63 2.76 2.76 0 0 1-.511-.979c-.112-.379-.168-.799-.168-1.26 0-.61.1-1.147.303-1.608.202-.46.507-.82.916-1.076.412-.256.928-.385 1.547-.385.592 0 1.09.127 1.494.381.406.254.713.611.92 1.072.21.458.315 1 .315 1.624Zm-4.763 0c0 .508.073.947.217 1.318.145.371.366.657.663.86.3.201.68.302 1.142.302.463 0 .843-.1 1.137-.303.298-.202.517-.488.66-.859.14-.371.212-.81.212-1.318 0-.771-.163-1.374-.487-1.808-.322-.437-.825-.655-1.51-.655-.464 0-.846.1-1.146.299-.3.199-.523.483-.67.851-.145.366-.218.803-.218 1.313Zm10.774 3h-.802l-3.261-5.025H75.6l.029.458c.01.17.019.35.024.544.009.191.013.386.013.586v3.437h-.647V7.842h.798l3.249 5.008h.029a45.41 45.41 0 0 1-.045-.974 21.676 21.676 0 0 1-.009-.569V7.842h.655v5.982Z" fill="#fff"/><path d="M44.376 10.69v-.1h-.1v.1h.1Zm2.09 0h.1v-.1h-.1v.1Zm0 2.9.033.095.068-.023v-.072h-.1Zm-.97.238-.015-.099.016.099Zm-2.683-.295-.05.087.05-.087Zm-.97-1.06-.09.044.09-.044Zm.033-3.26-.089-.048.089.047Zm1.06-1.073.048.088-.049-.088Zm2.614-.29-.02.098.02-.098Zm.835.257.091.04.04-.091-.091-.04-.04.091Zm-.266.606-.04.092.091.04.04-.092-.091-.04Zm-.733-.245-.025.096.025-.096Zm-2.078.2-.05-.087.05.087Zm-.798.855-.09-.045.09.045Zm-.033 2.615-.092.04.092-.04Zm.753.86-.051.085.051-.086Zm2.013.261.015.099h.002l-.017-.099Zm.528-.114.027.096.073-.02v-.076h-.1Zm0-1.834h.1v-.1h-.1v.1Zm-1.395 0h-.1v.1h.1v-.1Zm0-.522h2.09v-.2h-2.09v.2Zm1.99-.1v2.902h.2v-2.902h-.2Zm.069 2.807a5.68 5.68 0 0 1-.954.233l.031.198c.339-.053.667-.133.987-.242l-.065-.19Zm-.954.233c-.324.05-.688.077-1.093.077v.2c.413 0 .788-.027 1.124-.08l-.03-.197Zm-1.093.077c-.609 0-1.116-.122-1.525-.36l-.1.174c.447.259.99.386 1.625.386v-.2Zm-1.525-.36a2.304 2.304 0 0 1-.93-1.016l-.18.087c.23.476.566.844 1.01 1.103l.1-.173Zm-.93-1.016c-.213-.444-.322-.976-.322-1.597h-.2c0 .644.113 1.206.342 1.684l.18-.087Zm-.322-1.597c0-.606.12-1.13.353-1.574l-.177-.093c-.252.478-.376 1.034-.376 1.667h.2Zm.353-1.574a2.49 2.49 0 0 1 1.02-1.031l-.097-.175a2.69 2.69 0 0 0-1.1 1.112l.177.094Zm1.02-1.031c.446-.247.985-.372 1.62-.372v-.2c-.661 0-1.235.13-1.717.397l.097.175Zm1.62-.372c.327 0 .636.03.925.092l.042-.196a4.67 4.67 0 0 0-.966-.096v.2Zm.927.092c.293.059.565.142.814.251l.08-.183a4.188 4.188 0 0 0-.855-.264l-.04.196Zm.762.12-.266.605.183.08.266-.605-.183-.08Zm-.135.553a5 5 0 0 0-.747-.25l-.05.193c.264.068.503.148.718.24l.08-.183Zm-.747-.25a3.383 3.383 0 0 0-.847-.106v.2c.276 0 .541.033.797.1l.05-.194Zm-.847-.106c-.502 0-.939.104-1.306.316l.1.174c.33-.192.732-.29 1.206-.29v-.2Zm-1.307.317a2.116 2.116 0 0 0-.836.896l.178.09c.177-.351.43-.622.76-.814l-.102-.172Zm-.837.897c-.19.385-.284.837-.284 1.354h.2c0-.493.089-.914.263-1.265l-.179-.09Zm-.284 1.354c0 .51.082.959.25 1.345l.183-.08c-.155-.356-.233-.777-.233-1.265h-.2Zm.25 1.345c.169.387.434.69.793.905l.102-.172a1.733 1.733 0 0 1-.712-.813l-.184.08Zm.793.905c.36.217.82.321 1.369.321v-.2c-.526 0-.946-.1-1.267-.293l-.102.172Zm1.369.321c.273 0 .51-.015.71-.046l-.03-.198a4.52 4.52 0 0 1-.68.044v.2Zm.712-.046c.196-.034.376-.072.538-.117l-.054-.193c-.154.043-.327.08-.517.113l.033.197Zm.611-.213V11.31h-.2v1.834h.2Zm-.1-1.934h-1.395v.2h1.395v-.2Zm-1.295.1v-.622h-.2v.622h.2Zm6.77 2.513v.1h.1v-.1h-.1Zm-3.33 0h-.1v.1h.1v-.1Zm0-5.982v-.1h-.1v.1h.1Zm3.33 0h.1v-.1h-.1v.1Zm0 .613v.1h.1v-.1h-.1Zm-2.635 0v-.1h-.1v.1h.1Zm0 1.936h-.1v.1h.1v-.1Zm2.483 0h.1v-.1h-.1v.1Zm0 .605v.1h.1v-.1h-.1Zm-2.483 0v-.1h-.1v.1h.1Zm0 2.214h-.1v.1h.1v-.1Zm2.635 0h.1v-.1h-.1v.1Zm0 .514h-3.33v.2h3.33v-.2Zm-3.23.1V7.842h-.2v5.982h.2Zm-.1-5.882h3.33v-.2h-3.33v.2Zm3.23-.1v.613h.2v-.613h-.2Zm.1.513H48.61v.2h2.635v-.2Zm-2.735.1v1.936h.2V8.455h-.2Zm.1 2.036h2.483v-.2h-2.483v.2Zm2.384-.1v.605h.2v-.605h-.2Zm.1.505H48.61v.2h2.483v-.2Zm-2.584.1v2.214h.2v-2.214h-.2Zm.1 2.314h2.635v-.2H48.61v.2Zm2.535-.1v.614h.2v-.614h-.2Zm3.263.614v.1h.1v-.1h-.1Zm-.7 0h-.1v.1h.1v-.1Zm0-5.369h.1v-.1h-.1v.1Zm-1.882 0h-.1v.1h.1v-.1Zm0-.613v-.1h-.1v.1h.1Zm4.456 0h.1v-.1h-.1v.1Zm0 .613v.1h.1v-.1h-.1Zm-1.874 0v-.1h-.1v.1h.1Zm0 5.269h-.7v.2h.7v-.2Zm-.6.1V8.455h-.2v5.369h.2Zm-.1-5.469h-1.882v.2h1.882v-.2Zm-1.782.1v-.613h-.2v.613h.2Zm-.1-.513h4.456v-.2h-4.456v.2Zm4.356-.1v.613h.2v-.613h-.2Zm.1.513h-1.874v.2h1.874v-.2Zm-1.974.1v5.369h.2V8.455h-.2Zm5.055 5.369h-.1v.1h.1v-.1Zm0-5.982v-.1h-.1v.1h.1Zm.696 0h.1v-.1h-.1v.1Zm0 5.982v.1h.1v-.1h-.1Zm-.596 0V7.842h-.2v5.982h.2Zm-.1-5.882h.696v-.2h-.696v.2Zm.596-.1v5.982h.2V7.842h-.2Zm.1 5.882h-.696v.2h.696v-.2Zm3.482.1v.1h.1v-.1h-.1Zm-.7 0h-.1v.1h.1v-.1Zm0-5.369h.1v-.1h-.1v.1Zm-1.882 0h-.1v.1h.1v-.1Zm0-.613v-.1h-.1v.1h.1Zm4.456 0h.1v-.1h-.1v.1Zm0 .613v.1h.1v-.1h-.1Zm-1.874 0v-.1h-.1v.1h.1Zm0 5.269h-.7v.2h.7v-.2Zm-.6.1V8.455h-.2v5.369h.2Zm-.1-5.469H60.96v.2h1.882v-.2Zm-1.782.1v-.613h-.2v.613h.2Zm-.1-.513h4.456v-.2H60.96v.2Zm4.356-.1v.613h.2v-.613h-.2Zm.1.513h-1.874v.2h1.874v-.2Zm-1.974.1v5.369h.2V8.455h-.2Zm10.067 3.63.096.03-.096-.03Zm-.523.974-.077-.065.077.065Zm-.856.626.04.091-.04-.091Zm-2.401 0-.04.091.04-.091Zm-.86-.63-.077.063.077-.063Zm-.511-.979-.096.029.096-.029Zm1.051-3.944-.053-.085.053.085Zm3.04-.004-.053.085.054-.085ZM73.37 9.2l-.091.041.091-.041Zm-3.568 3.801-.056.083.056-.083Zm2.28 0-.057-.082.056.082Zm.384-3.985-.08.06.08-.06ZM69.81 8.66l-.055-.083.055.083Zm-.67.851-.094-.037.093.037Zm4.445 1.313c0 .453-.057.863-.171 1.231l.19.06c.122-.39.181-.821.181-1.29h-.2Zm-.171 1.231a2.643 2.643 0 0 1-.505.939l.153.13c.241-.285.422-.622.543-1.01l-.191-.059Zm-.505.939a2.199 2.199 0 0 1-.818.599l.079.183c.354-.153.652-.37.892-.653l-.153-.13Zm-.818.599a2.87 2.87 0 0 1-1.147.213v.2c.46 0 .87-.076 1.226-.23l-.08-.183Zm-1.147.213c-.454 0-.845-.072-1.176-.213l-.079.184c.362.153.78.229 1.255.229v-.2Zm-1.176-.213a2.172 2.172 0 0 1-.822-.603l-.153.129c.24.285.539.504.896.658l.079-.184Zm-.822-.602a2.66 2.66 0 0 1-.492-.943l-.192.057c.118.39.294.73.53 1.013l.154-.127Zm-.492-.943a4.342 4.342 0 0 1-.164-1.232h-.2c0 .47.057.9.172 1.289l.192-.057Zm-.164-1.232c0-.6.1-1.122.294-1.568l-.183-.08c-.208.476-.311 1.026-.311 1.648h.2Zm.294-1.568c.195-.443.487-.786.878-1.031l-.106-.17a2.447 2.447 0 0 0-.955 1.121l.183.08Zm.878-1.031c.392-.244.888-.37 1.494-.37v-.2c-.633 0-1.168.131-1.6.4l.106.17Zm1.494-.37c.578 0 1.056.124 1.44.366l.107-.17c-.423-.266-.94-.396-1.547-.396v.2Zm1.44.366c.39.242.683.584.883 1.028l.182-.082a2.48 2.48 0 0 0-.959-1.116l-.105.17Zm.883 1.029c.203.442.306.969.306 1.582h.2c0-.635-.107-1.192-.324-1.666l-.182.084Zm-4.457 1.582c0 .517.074.97.224 1.354l.186-.072c-.139-.357-.21-.783-.21-1.282h-.2Zm.224 1.354c.151.388.384.692.7.906l.112-.165a1.69 1.69 0 0 1-.626-.813l-.186.072Zm.7.906c.32.216.722.32 1.198.32v-.2c-.447 0-.806-.098-1.086-.286l-.112.166Zm1.198.32c.478 0 .878-.104 1.194-.32l-.113-.165c-.274.187-.632.285-1.081.285v.2Zm1.194-.32c.316-.214.547-.518.695-.906l-.186-.072a1.668 1.668 0 0 1-.622.813l.112.165Zm.695-.906c.148-.385.22-.837.22-1.354h-.2c0 .499-.07.925-.206 1.282l.186.072Zm.22-1.354c0-.784-.165-1.411-.507-1.868l-.16.12c.307.41.467.99.467 1.748h.2Zm-.507-1.867c-.345-.47-.883-.696-1.59-.696v.2c.662 0 1.131.21 1.43.614l.16-.118Zm-1.59-.696c-.478 0-.88.103-1.201.316l.11.166c.28-.185.641-.282 1.091-.282v-.2Zm-1.201.316a1.884 1.884 0 0 0-.709.897l.186.074c.14-.351.352-.618.634-.805l-.111-.166Zm-.709.897c-.15.38-.224.831-.224 1.35h.2c0-.5.072-.925.21-1.276l-.186-.074Zm10.65 4.35v.1h.1v-.1h-.1Zm-.802 0-.084.054.03.046h.054v-.1Zm-3.261-5.025.084-.054-.03-.046h-.054v.1Zm-.033 0v-.1h-.106l.006.106.1-.006Zm.029.458-.1.007.1-.007Zm.024.544-.1.003v.002l.1-.005Zm.013 4.023v.1h.1v-.1h-.1Zm-.647 0h-.1v.1h.1v-.1Zm0-5.982v-.1h-.1v.1h.1Zm.798 0 .084-.055-.03-.045h-.054v.1Zm3.249 5.008-.084.054.03.046h.054v-.1Zm.029 0v.1h.106l-.006-.106-.1.006Zm-.02-.405-.1.004.1-.004Zm-.025-.569-.1.003v.001l.1-.004Zm-.009-4.034v-.1h-.1v.1h.1Zm.655 0h.1v-.1h-.1v.1Zm0 5.882h-.802v.2h.802v-.2Zm-.718.045-3.261-5.024-.168.108 3.261 5.025.168-.109ZM75.633 8.7H75.6v.2h.033v-.2Zm-.133.106.03.459.199-.013-.029-.458-.2.012Zm.03.459c.01.167.018.348.023.54l.2-.005a15.206 15.206 0 0 0-.024-.548l-.2.013Zm.023.542c.009.19.013.383.013.58h.2c0-.2-.004-.396-.013-.589l-.2.009Zm.013.58v3.438h.2v-3.437h-.2Zm.1 3.338h-.647v.2h.647v-.2Zm-.547.1V7.842h-.2v5.982h.2Zm-.1-5.882h.798v-.2h-.798v.2Zm.714-.046 3.25 5.008.167-.108L75.9 7.787l-.168.109Zm3.333 5.054h.029v-.2h-.029v.2Zm.129-.106a37.82 37.82 0 0 1-.02-.404l-.2.01c.008.174.014.31.02.406l.2-.012Zm-.02-.404c-.01-.177-.017-.366-.025-.568l-.2.008.024.57.2-.01Zm-.025-.567a21.086 21.086 0 0 1-.009-.566h-.2c0 .176.003.366.009.572l.2-.006Zm-.009-.566V7.842h-.2v3.465h.2Zm-.1-3.365h.655v-.2h-.655v.2Zm.555-.1v5.982h.2V7.842h-.2ZM68.14 21.953a4.26 4.26 0 1 0 4.27 4.25 4.192 4.192 0 0 0-4.27-4.25Zm0 6.83a2.58 2.58 0 1 1 2.4-2.58 2.461 2.461 0 0 1-2.4 2.58Zm-9.32-6.83a4.26 4.26 0 1 0 4.27 4.25 4.192 4.192 0 0 0-4.27-4.25Zm0 6.83a2.58 2.58 0 1 1 2.4-2.58 2.461 2.461 0 0 1-2.4 2.58Zm-11.08-5.52v1.8h4.32a3.77 3.77 0 0 1-1 2.27 4.422 4.422 0 0 1-3.34 1.32 4.8 4.8 0 1 1 0-9.6 4.64 4.64 0 0 1 3.28 1.29l1.27-1.27a6.3 6.3 0 0 0-4.53-1.82 6.61 6.61 0 1 0 0 13.21 6.07 6.07 0 0 0 4.61-1.85 6 6 0 0 0 1.56-4.23 6.274 6.274 0 0 0-.09-1.12h-6.08Zm45.31 1.4a4 4 0 0 0-3.64-2.71 4.001 4.001 0 0 0-4 4.25 4.23 4.23 0 0 0 7.76 2.37l-1.45-1a2.411 2.411 0 0 1-2.09 1.17 2.15 2.15 0 0 1-2.06-1.29l5.69-2.35-.21-.44Zm-5.8 1.42a2.338 2.338 0 0 1 2.23-2.49 1.64 1.64 0 0 1 1.57.91l-3.8 1.58Zm-4.62 4.12h1.87v-12.5h-1.87v12.5Zm-3.06-7.3h-.07a2.941 2.941 0 0 0-2.24-1 4.26 4.26 0 0 0 0 8.51 2.881 2.881 0 0 0 2.24-1h.07v.61c0 1.63-.87 2.5-2.27 2.5a2.36 2.36 0 0 1-2.15-1.51l-1.62.67a4 4 0 0 0 3.77 2.52c2.19 0 4-1.29 4-4.43v-7.57h-1.73v.7Zm-2.15 5.88a2.58 2.58 0 0 1 0-5.15 2.392 2.392 0 0 1 2.28 2.57 2.38 2.38 0 0 1-2.28 2.58Zm24.39-11.08h-4.48v12.5h1.87v-4.74h2.61a3.89 3.89 0 1 0 0-7.76Zm0 6H99.2v-4.26h2.65a2.143 2.143 0 0 1 2.14 2.14 2.132 2.132 0 0 1-.627 1.514 2.136 2.136 0 0 1-1.513.627l-.04-.02Zm11.54-1.79a3.49 3.49 0 0 0-3.33 1.91l1.65.69a1.783 1.783 0 0 1 1.71-.91 1.802 1.802 0 0 1 2 1.61v.12a4.181 4.181 0 0 0-1.95-.48c-1.78 0-3.6 1-3.6 2.82a2.899 2.899 0 0 0 .973 2.034 2.88 2.88 0 0 0 2.137.716 2.649 2.649 0 0 0 2.38-1.22h.06v1h1.8v-4.81c0-2.19-1.66-3.46-3.79-3.46l-.04-.02Zm-.23 6.85c-.61 0-1.46-.31-1.46-1.06 0-1 1.06-1.34 2-1.34a3.321 3.321 0 0 1 1.7.42 2.259 2.259 0 0 1-2.2 2l-.04-.02Zm10.62-6.56-2.14 5.42h-.06l-2.22-5.42h-2l3.33 7.58-1.9 4.21h1.95l5.12-11.79h-2.08Zm-16.8 8h1.86v-12.5h-1.86v12.5Z" fill="#fff"/><path d="m20.72 19.623-10.65 11.3a2.89 2.89 0 0 0 4.24 1.74l12-6.92-5.59-6.12Z" fill="#EA4335"/><path d="m31.49 17.704-5.18-3-5.82 5.19 5.84 5.85 5.15-3a2.87 2.87 0 0 0 0-5.06l.01.02Z" fill="#FBBC04"/><path d="M10.07 9.484a2.947 2.947 0 0 0-.07.72v20c.002.25.035.498.1.74l11-11-11.03-10.46Z" fill="#4285F4"/><path d="m20.8 20.203 5.51-5.51-12-6.94a2.89 2.89 0 0 0-4.27 1.72l10.76 10.73Z" fill="#34A853"/></svg>