<svg width="24" height="24" fill="none" xmlns="http://www.w3.org/2000/svg"><path d="m12.308 15.471.076-1.064.927-.529A11.643 11.643 0 0 0 15.743 12c2.64-2.641 3.446-5.746 2.475-6.718-.972-.97-4.077-.166-6.718 2.475-.76.76-1.397 1.59-1.878 2.432l-.53.927-1.063.076c-.872.061-1.7.408-2.355.988 1.25.55 2.386 1.328 3.351 2.295.98.98 1.752 2.117 2.295 3.351.58-.655.927-1.483.988-2.355ZM9.335 18.3a6.691 6.691 0 0 1-.663.771c-1.172 1.172-2.94 1.525-5.304 1.06-.464-2.363-.11-4.131 1.06-5.303.248-.246.506-.468.772-.663a8.975 8.975 0 0 0-2.598-.81c.29-.912.796-1.74 1.473-2.416a5.977 5.977 0 0 1 3.81-1.741 13.636 13.636 0 0 1 2.2-2.855c3.32-3.32 7.594-4.427 9.547-2.475 1.952 1.953.844 6.227-2.475 9.546-.85.856-1.81 1.596-2.855 2.2a5.977 5.977 0 0 1-1.741 3.81 5.956 5.956 0 0 1-2.416 1.474 8.975 8.975 0 0 0-.81-2.598ZM7.61 15.89a2.598 2.598 0 0 0-.54-.415c-.432.15-.94.48-1.405.944-.219.22-.487.959-.49 1.905.946-.003 1.688-.274 1.905-.49.465-.466.795-.973.944-1.405a2.6 2.6 0 0 0-.414-.54v.001Zm7.778-7.78a1 1 0 1 1 1.414-1.413A1 1 0 0 1 15.39 8.11h-.002Z" fill="#0F172A"/></svg>